<?xml version="1.0" standalone="no"?>
<!DOCTYPE svg PUBLIC "-//W3C//DTD SVG 20010904//EN"
 "http://www.w3.org/TR/2001/REC-SVG-20010904/DTD/svg10.dtd">
<svg version="1.0" xmlns="http://www.w3.org/2000/svg"
 width="1053.000000pt" height="772.000000pt" viewBox="0 0 1053.000000 772.000000"
 preserveAspectRatio="xMidYMid meet">

<g transform="translate(0.000000,772.000000) scale(0.100000,-0.100000)"
fill="#000000" stroke="none">
<path d="M3670 5171 l0 -1899 66 -4 c36 -1 72 1 80 5 12 7 14 185 14 1233 0
1380 -7 1275 77 1192 l44 -45 9 -1189 c5 -654 9 -1190 9 -1191 1 -2 34 -2 74
-1 l72 2 -67 3 -68 4 -1 487 c-1 268 -4 803 -8 1189 l-6 701 -67 70 c-47 48
-69 65 -73 55 -3 -8 -5 -575 -5 -1259 l0 -1245 -67 3 -68 3 -3 1878 c-2 1498
0 1877 10 1877 7 0 47 -35 89 -78 113 -114 873 -858 1024 -1001 72 -68 155
-149 186 -180 31 -31 71 -69 90 -86 l34 -30 -30 35 c-16 19 -34 37 -38 41 -4
3 -83 80 -175 170 -92 90 -351 344 -576 564 -226 220 -450 439 -499 488 -49
48 -98 92 -108 98 -19 9 -19 -29 -19 -1890z"/>
<path d="M6337 6589 l-472 -473 471 467 c259 257 477 467 483 467 8 0 11 -495
11 -1885 l0 -1885 -27 -6 c-45 -9 -50 -12 -22 -13 14 -1 33 5 42 12 16 11 17
134 15 1896 -3 1545 -5 1885 -16 1889 -8 2 -218 -202 -485 -469z"/>
<path d="M3804 6645 c-7 -29 3 -46 15 -26 5 7 13 12 19 10 14 -6 1240 -1220
1258 -1247 14 -21 13 -25 -22 -67 -20 -25 -44 -45 -53 -45 -9 0 -283 267 -609
593 l-594 594 -8 74 -7 74 -2 -75 -1 -75 583 -583 c320 -321 595 -592 610
-604 l29 -21 49 49 c27 26 49 56 49 65 0 15 -1277 1300 -1300 1307 -5 2 -12
-8 -16 -23z"/>
<path d="M6606 6572 c-25 -33 -46 -64 -46 -68 0 -4 16 14 35 40 20 25 40 46
44 46 5 0 11 -28 14 -62 3 -35 6 -778 7 -1653 1 -875 4 -1593 8 -1597 4 -4 6
745 4 1665 -1 936 -6 1675 -11 1680 -5 5 -28 -17 -55 -51z"/>
<path d="M6548 4880 c-2 -886 0 -1610 5 -1610 4 0 7 725 7 1610 0 886 -2 1610
-5 1610 -3 0 -6 -725 -7 -1610z"/>
<path d="M6329 6324 c-12 -15 -11 -16 9 -10 l22 7 0 -1510 c0 -830 3 -1516 6
-1525 3 -9 11 -16 17 -16 7 0 7 4 -1 12 -9 9 -12 364 -12 1535 0 1605 1 1558
-41 1507z"/>
<path d="M6275 6258 l-40 -43 43 40 c39 36 47 45 39 45 -2 0 -21 -19 -42 -42z"/>
<path d="M3806 6214 c-3 -9 -6 -57 -6 -107 l0 -92 496 -492 c273 -271 502
-493 508 -493 15 0 106 92 106 107 0 14 -1078 1093 -1093 1093 -2 0 -8 -7 -11
-16z m568 -548 c284 -282 516 -519 516 -527 0 -16 -69 -89 -85 -89 -5 0 -232
219 -503 488 l-492 487 0 71 c0 75 3 84 30 84 10 0 250 -231 534 -514z"/>
<path d="M6235 4755 c0 -803 1 -1133 2 -733 2 399 2 1056 0 1460 -1 403 -2 76
-2 -727z"/>
<path d="M5760 6015 c-41 -41 -72 -75 -69 -75 2 0 38 34 79 75 41 41 72 75 69
75 -2 0 -38 -34 -79 -75z"/>
<path d="M5932 5943 c-75 -76 -77 -78 -11 -14 96 91 107 90 112 -11 l3 -73 2
87 c1 52 -2 89 -9 93 -5 4 -49 -33 -97 -82z"/>
<path d="M5475 5730 c-110 -110 -203 -200 -206 -200 -3 0 -31 26 -62 57 -32
32 -57 53 -57 48 0 -12 105 -115 117 -115 5 0 100 92 213 205 113 113 203 205
200 205 -3 0 -95 -90 -205 -200z"/>
<path d="M5550 5353 l-445 -448 448 445 c246 245 447 446 447 447 0 7 -36 -29
-450 -444z"/>
<path d="M5125 5650 c3 -5 8 -10 11 -10 2 0 4 5 4 10 0 6 -5 10 -11 10 -5 0
-7 -4 -4 -10z"/>
<path d="M6017 5569 c6 -8 13 -27 16 -44 4 -23 4 -20 3 9 -1 25 -6 41 -16 44
-12 4 -13 2 -3 -9z"/>
<path d="M5459 5473 l-24 -28 28 24 c15 14 27 26 27 28 0 8 -8 1 -31 -24z"/>
<path d="M4110 5470 c0 -5 9 -10 21 -10 11 0 17 5 14 10 -3 6 -13 10 -21 10
-8 0 -14 -4 -14 -10z"/>
<path d="M6033 5430 c0 -25 2 -35 4 -22 2 12 2 32 0 45 -2 12 -4 2 -4 -23z"/>
<path d="M4204 5405 c11 -16 27 -35 35 -42 14 -10 17 -120 21 -1050 l5 -1038
88 -3 87 -3 0 931 c0 879 1 930 18 930 9 0 110 -97 227 -217 248 -257 471
-482 400 -403 -28 30 -100 107 -160 170 -61 63 -157 165 -215 226 -253 265
-263 275 -271 262 -5 -7 -9 -435 -9 -951 l0 -938 -72 3 -73 3 -5 1030 -5 1031
-45 44 c-35 36 -41 39 -26 15z"/>
<path d="M5329 5343 c-13 -16 -12 -17 4 -4 9 7 17 15 17 17 0 8 -8 3 -21 -13z"/>
<path d="M5229 5243 c-13 -16 -12 -17 4 -4 9 7 17 15 17 17 0 8 -8 3 -21 -13z"/>
<path d="M5150 5157 c-14 -13 -32 -32 -40 -42 -8 -11 5 -2 28 20 38 35 47 46
40 45 -2 0 -14 -11 -28 -23z"/>
<path d="M6024 5095 c-17 -13 -17 -14 -2 -15 17 0 18 -31 21 -462 l2 -463 3
478 c1 262 1 477 -1 477 -2 0 -12 -7 -23 -15z"/>
<path d="M5045 5056 c-41 -44 -47 -60 -10 -24 22 21 37 39 35 41 -3 3 -14 -5
-25 -17z"/>
<path d="M4953 4963 c-18 -18 -33 -36 -33 -41 0 -15 81 -102 94 -102 6 0 30
19 51 42 37 39 37 40 5 10 -46 -41 -68 -40 -102 2 -35 43 -35 53 -1 88 38 39
25 40 -14 1z"/>
<path d="M5879 4963 l-34 -38 38 34 c34 33 42 41 34 41 -2 0 -19 -17 -38 -37z"/>
<path d="M5814 4898 l-19 -23 23 19 c12 11 22 21 22 23 0 8 -8 2 -26 -19z"/>
<path d="M5715 4808 l-70 -73 73 70 c67 64 77 75 69 75 -1 0 -34 -33 -72 -72z"/>
<path d="M5530 4640 c-52 -50 -90 -90 -83 -90 6 0 13 4 15 9 2 5 42 45 90 90
49 45 85 81 80 81 -4 -1 -50 -41 -102 -90z"/>
<path d="M5335 4455 c-49 -46 -95 -84 -102 -85 -7 0 -28 16 -48 35 -19 20 -35
32 -35 27 0 -14 65 -72 80 -72 13 0 212 179 200 179 -3 1 -45 -37 -95 -84z"/>
<path d="M6133 3263 c9 -2 23 -2 30 0 6 3 -1 5 -18 5 -16 0 -22 -2 -12 -5z"/>
<path d="M6423 3263 c15 -2 37 -2 50 0 12 2 0 4 -28 4 -27 0 -38 -2 -22 -4z"/>
<path d="M6698 3263 c7 -3 16 -2 19 1 4 3 -2 6 -13 5 -11 0 -14 -3 -6 -6z"/>
<path d="M2051 2494 c40 -61 293 -371 401 -491 l38 -42 67 78 c38 43 75 86 83
97 9 10 63 77 120 147 58 71 110 136 115 145 6 9 18 23 28 30 9 7 17 19 17 27
0 7 5 16 10 18 6 3 6 5 1 4 -8 -2 -153 -176 -270 -325 -24 -31 -52 -65 -62
-75 -9 -10 -35 -41 -56 -68 -57 -72 -48 -76 -187 96 -229 284 -344 419 -305
359z"/>
<path d="M3529 2508 c0 -2 -3 -264 -5 -582 -3 -417 -1 -583 7 -593 12 -14 115
-18 136 -5 6 4 -18 7 -55 7 -64 0 -66 1 -74 30 -8 29 -1 1106 7 1133 4 9 -12
19 -16 10z"/>
<path d="M4260 2506 c0 -2 7 -7 16 -10 8 -3 12 -2 9 4 -6 10 -25 14 -25 6z"/>
<path d="M5510 2388 c-30 -68 -64 -140 -77 -160 -13 -21 -23 -42 -23 -47 0 -5
-18 -48 -41 -96 -63 -136 -90 -198 -86 -201 2 -2 28 49 59 114 114 239 158
333 158 337 0 12 75 161 84 167 7 5 5 8 -5 8 -10 0 -33 -41 -69 -122z"/>
<path d="M5663 2503 c17 -34 87 -185 87 -189 0 -3 27 -62 60 -131 33 -68 60
-128 60 -134 0 -5 5 -9 11 -9 5 0 9 3 7 8 -37 74 -145 309 -196 425 -9 20 -20
37 -25 37 -4 0 -6 -3 -4 -7z"/>
<path d="M6663 2463 c19 -27 71 -99 116 -161 45 -62 86 -119 91 -125 37 -47
112 -144 214 -279 66 -87 121 -158 124 -158 2 0 -7 15 -20 33 -25 32 -150 201
-333 448 -55 75 -125 170 -155 212 -30 42 -59 77 -63 77 -5 0 7 -21 26 -47z"/>
<path d="M7287 2503 c-4 -3 -7 -191 -7 -416 l0 -409 -21 5 c-20 5 -20 5 -3
-14 10 -11 21 -16 25 -12 8 8 24 853 17 853 -3 0 -8 -3 -11 -7z"/>
<path d="M8254 2490 c-54 -19 -135 -61 -170 -89 -92 -73 -200 -250 -209 -346
-2 -27 -2 -41 1 -30 3 11 16 53 30 93 64 187 208 320 400 372 55 15 62 19 34
19 -19 0 -58 -9 -86 -19z"/>
<path d="M8465 2503 c259 -54 430 -222 481 -473 11 -57 15 -110 11 -165 -3
-45 -1 -69 3 -55 23 71 1 258 -40 355 -26 60 -95 158 -147 206 -76 72 -232
142 -306 138 -20 -1 -20 -2 -2 -6z"/>
<path d="M3055 1990 c0 -283 1 -399 2 -258 2 142 2 374 0 515 -1 142 -2 26 -2
-257z"/>
<path d="M1924 2175 c0 -176 2 -247 3 -157 2 90 2 234 0 320 -1 86 -3 13 -3
-163z"/>
<path d="M3673 2245 l1 -250 6 230 c3 127 2 239 -2 250 -4 11 -6 -92 -5 -230z"/>
<path d="M4126 2448 c-3 -24 -2 -144 2 -268 l9 -225 1 268 c1 147 0 267 -2
267 -3 0 -7 -19 -10 -42z"/>
<path d="M6524 2160 c0 -184 2 -260 3 -167 2 92 2 242 0 335 -1 92 -3 16 -3
-168z"/>
<path d="M4271 2231 c-1 -140 2 -252 5 -249 9 10 14 442 5 473 -6 20 -10 -58
-10 -224z"/>
<path d="M7434 2270 c0 -107 2 -151 3 -97 2 53 2 141 0 195 -1 53 -3 9 -3 -98z"/>
<path d="M8323 2362 c-6 -4 36 -7 93 -8 57 0 98 3 92 8 -16 10 -169 10 -185 0z"/>
<path d="M8235 2323 c-85 -43 -184 -162 -200 -238 -4 -19 1 -13 13 17 35 84
120 176 201 218 31 16 52 29 46 29 -5 0 -32 -11 -60 -26z"/>
<path d="M8570 2329 c53 -23 130 -95 171 -158 16 -25 29 -40 29 -34 0 17 -59
96 -104 136 -43 40 -106 78 -128 76 -7 0 7 -9 32 -20z"/>
<path d="M8490 2260 c0 -5 5 -10 10 -10 6 0 10 5 10 10 0 6 -4 10 -10 10 -5 0
-10 -4 -10 -10z"/>
<path d="M5578 2183 c-76 -164 -119 -265 -115 -269 2 -3 26 44 53 103 76 166
88 188 105 191 10 2 21 -9 29 -30 8 -18 33 -75 58 -127 24 -51 48 -105 53
-119 5 -14 12 -23 14 -20 3 3 -6 31 -21 64 -14 32 -33 75 -41 94 -8 19 -26 58
-39 86 -13 28 -24 54 -24 58 0 4 -8 16 -18 27 -18 19 -19 18 -54 -58z"/>
<path d="M2065 2207 c-3 -7 -2 -137 3 -287 l9 -275 1 257 c2 188 5 259 14 264
8 5 34 -17 73 -61 114 -131 162 -176 84 -80 -40 50 -86 104 -101 120 -15 17
-28 33 -28 36 0 4 -11 14 -25 23 -20 13 -26 14 -30 3z"/>
<path d="M2758 2059 c-73 -88 -135 -165 -137 -171 -2 -7 50 52 117 129 66 78
126 144 133 148 6 4 15 1 20 -6 5 -8 9 -194 9 -414 0 -298 3 -404 12 -413 14
-14 134 -16 143 -2 3 5 8 40 10 77 5 77 -1 66 -10 -20 l-7 -58 -56 2 c-31 1
-63 4 -71 7 -11 4 -13 79 -11 431 3 475 3 451 -9 451 -5 0 -69 -72 -143 -161z"/>
<path d="M8556 2193 c-6 -14 -5 -15 5 -6 7 7 10 15 7 18 -3 3 -9 -2 -12 -12z"/>
<path d="M6665 2190 c-9 -14 -4 -193 6 -183 4 4 9 35 11 68 4 88 22 84 98 -22
35 -48 67 -90 70 -93 3 -3 32 -42 65 -88 33 -46 64 -86 70 -90 5 -3 -2 10 -16
29 -14 18 -65 90 -114 159 -112 160 -165 230 -176 230 -4 0 -10 -4 -14 -10z"/>
<path d="M8168 2183 c7 -3 16 -2 19 1 4 3 -2 6 -13 5 -11 0 -14 -3 -6 -6z"/>
<path d="M8478 2148 c-10 -10 -14 -18 -9 -18 10 0 36 29 30 34 -2 1 -12 -6
-21 -16z"/>
<path d="M8770 2113 c0 -4 5 -15 10 -23 8 -13 10 -13 10 2 0 9 -4 20 -10 23
-5 3 -10 3 -10 -2z"/>
<path d="M8230 2071 c5 -14 25 -71 45 -126 20 -55 41 -116 47 -135 13 -48 32
-90 39 -90 9 0 65 65 129 150 30 40 70 91 89 112 19 21 31 41 27 45 -3 4 -10
2 -15 -3 -120 -134 -208 -231 -216 -236 -6 -4 -13 3 -16 15 -3 12 -15 42 -27
67 -39 87 -73 185 -69 202 3 11 -3 18 -18 20 -20 4 -22 2 -15 -21z"/>
<path d="M8680 2096 c0 -2 9 -6 20 -9 11 -3 18 -1 14 4 -5 9 -34 13 -34 5z"/>
<path d="M8649 2073 c-13 -16 -12 -17 4 -4 16 13 21 21 13 21 -2 0 -10 -8 -17
-17z"/>
<path d="M8288 2073 c6 -2 18 -2 25 0 6 3 1 5 -13 5 -14 0 -19 -2 -12 -5z"/>
<path d="M8488 2063 c7 -3 16 -2 19 1 4 3 -2 6 -13 5 -11 0 -14 -3 -6 -6z"/>
<path d="M8797 2035 c3 -22 7 -42 9 -44 8 -9 2 45 -6 64 -7 14 -8 8 -3 -20z"/>
<path d="M8530 2056 c0 -2 9 -6 20 -9 11 -3 18 -1 14 4 -5 9 -34 13 -34 5z"/>
<path d="M8021 2034 c0 -11 3 -14 6 -6 3 7 2 16 -1 19 -3 4 -6 -2 -5 -13z"/>
<path d="M5890 2025 c0 -13 82 -186 87 -181 2 1 -17 45 -41 97 -25 52 -45 90
-46 84z"/>
<path d="M8466 2021 c-3 -5 0 -14 8 -20 10 -8 16 -8 25 2 6 8 8 17 4 20 -9 10
-31 9 -37 -2z"/>
<path d="M8649 2013 c-13 -16 -12 -17 4 -4 16 13 21 21 13 21 -2 0 -10 -8 -17
-17z"/>
<path d="M8012 1985 c0 -16 2 -22 5 -12 2 9 2 23 0 30 -3 6 -5 -1 -5 -18z"/>
<path d="M8400 2000 c0 -5 5 -10 11 -10 5 0 7 5 4 10 -3 6 -8 10 -11 10 -2 0
-4 -4 -4 -10z"/>
<path d="M7864 1915 c0 -49 1 -71 3 -48 2 23 2 64 0 90 -2 26 -3 8 -3 -42z"/>
<path d="M6672 1675 c-1 -176 -6 -326 -11 -333 -5 -9 -26 -12 -67 -10 -52 3
-59 6 -66 28 -6 23 -7 23 -5 -5 2 -30 2 -30 69 -33 58 -3 68 0 78 17 7 14 9
126 7 338 l-2 318 -3 -320z"/>
<path d="M4281 1954 c0 -11 3 -14 6 -6 3 7 2 16 -1 19 -3 4 -6 -2 -5 -13z"/>
<path d="M8594 1948 l-19 -23 23 19 c12 11 22 21 22 23 0 8 -8 2 -26 -19z"/>
<path d="M8230 1951 c0 -6 4 -13 10 -16 6 -3 7 1 4 9 -7 18 -14 21 -14 7z"/>
<path d="M8812 1920 c0 -19 2 -27 5 -17 2 9 2 25 0 35 -3 9 -5 1 -5 -18z"/>
<path d="M2341 1903 c14 -16 44 -49 67 -75 23 -26 42 -45 42 -41 0 3 -17 24
-38 47 -20 22 -47 53 -59 69 -11 15 -24 27 -29 27 -4 0 3 -12 17 -27z"/>
<path d="M8012 1880 c0 -19 2 -27 5 -17 2 9 2 25 0 35 -3 9 -5 1 -5 -18z"/>
<path d="M5442 1875 c-17 -37 -14 -45 4 -12 9 16 14 31 11 33 -2 2 -9 -7 -15
-21z"/>
<path d="M5780 1899 c0 -4 14 -35 30 -70 17 -35 28 -53 24 -39 -7 26 -53 119
-54 109z"/>
<path d="M8524 1868 l-19 -23 23 19 c21 18 27 26 19 26 -2 0 -12 -10 -23 -22z"/>
<path d="M2583 1850 c-32 -39 -29 -48 3 -10 15 17 25 32 23 34 -2 2 -14 -9
-26 -24z"/>
<path d="M5255 1839 c-9 -17 -15 -33 -13 -35 3 -2 12 12 21 31 21 43 13 47 -8
4z"/>
<path d="M3683 1825 c0 -22 2 -30 4 -17 2 12 2 30 0 40 -3 9 -5 -1 -4 -23z"/>
<path d="M4285 1665 l0 -190 287 -3 287 -2 4 -23 c5 -19 5 -19 4 3 l-2 25
-285 5 -285 5 -5 185 -6 185 1 -190z"/>
<path d="M5986 1817 c3 -10 9 -15 12 -12 3 3 0 11 -7 18 -10 9 -11 8 -5 -6z"/>
<path d="M8427 1755 c-32 -36 -57 -70 -55 -75 2 -5 29 24 61 65 32 41 56 75
55 75 -2 0 -29 -29 -61 -65z"/>
<path d="M2519 1773 l-24 -28 28 24 c25 23 32 31 24 31 -2 0 -14 -12 -28 -27z"/>
<path d="M7872 1780 c0 -14 2 -19 5 -12 2 6 2 18 0 25 -3 6 -5 1 -5 -13z"/>
<path d="M5392 1765 c-17 -37 -14 -45 4 -12 9 16 14 31 11 33 -2 2 -9 -7 -15
-21z"/>
<path d="M6000 1781 c0 -6 4 -13 10 -16 6 -3 7 1 4 9 -7 18 -14 21 -14 7z"/>
<path d="M8306 1770 c10 -38 32 -87 32 -70 0 8 -8 33 -19 55 -10 22 -16 29
-13 15z"/>
<path d="M5216 1753 c-6 -14 -5 -15 5 -6 7 7 10 15 7 18 -3 3 -9 -2 -12 -12z"/>
<path d="M6990 1766 c0 -2 8 -10 18 -17 15 -13 16 -12 3 4 -13 16 -21 21 -21
13z"/>
<path d="M5846 1747 c3 -10 9 -15 12 -12 3 3 0 11 -7 18 -10 9 -11 8 -5 -6z"/>
<path d="M8936 1745 c-3 -9 -6 -22 -5 -28 0 -7 5 -1 10 12 5 13 8 26 5 28 -2
2 -6 -3 -10 -12z"/>
<path d="M7881 1740 c0 -8 4 -22 9 -30 12 -18 12 -2 0 25 -6 13 -9 15 -9 5z"/>
<path d="M7210 1726 c0 -2 8 -10 18 -17 15 -13 16 -12 3 4 -13 16 -21 21 -21
13z"/>
<path d="M3684 1600 c0 -69 1 -97 3 -62 2 34 2 90 0 125 -2 34 -3 6 -3 -63z"/>
<path d="M5871 1695 c0 -5 8 -26 19 -45 11 -19 19 -30 19 -25 0 6 -8 26 -19
45 -11 19 -19 31 -19 25z"/>
<path d="M7040 1696 c0 -2 8 -10 18 -17 15 -13 16 -12 3 4 -13 16 -21 21 -21
13z"/>
<path d="M5346 1663 c-6 -14 -5 -15 5 -6 7 7 10 15 7 18 -3 3 -9 -2 -12 -12z"/>
<path d="M5166 1643 c-6 -14 -5 -15 5 -6 7 7 10 15 7 18 -3 3 -9 -2 -12 -12z"/>
<path d="M6060 1655 c0 -5 5 -17 10 -25 5 -8 10 -10 10 -5 0 6 -5 17 -10 25
-5 8 -10 11 -10 5z"/>
<path d="M7070 1656 c0 -2 8 -10 18 -17 15 -13 16 -12 3 4 -13 16 -21 21 -21
13z"/>
<path d="M8356 1645 c-3 -9 -6 -22 -5 -28 0 -7 5 -1 10 12 5 13 8 26 5 28 -2
2 -6 -3 -10 -12z"/>
<path d="M7930 1620 c6 -11 13 -20 16 -20 2 0 0 9 -6 20 -6 11 -13 20 -16 20
-2 0 0 -9 6 -20z"/>
<path d="M8331 1624 c0 -11 3 -14 6 -6 3 7 2 16 -1 19 -3 4 -6 -2 -5 -13z"/>
<path d="M4123 1570 c0 -36 2 -50 4 -32 2 17 2 47 0 65 -2 17 -4 3 -4 -33z"/>
<path d="M7100 1616 c0 -2 8 -10 18 -17 15 -13 16 -12 3 4 -13 16 -21 21 -21
13z"/>
<path d="M6091 1590 c14 -31 19 -36 19 -24 0 6 -7 19 -16 30 -14 18 -14 18 -3
-6z"/>
<path d="M8669 1583 l-24 -28 28 24 c15 14 27 26 27 28 0 8 -8 1 -31 -24z"/>
<path d="M8855 1569 c-41 -58 -139 -146 -198 -175 -84 -43 -144 -56 -257 -57
-86 0 -96 -2 -55 -8 99 -15 216 6 316 56 54 28 194 158 218 203 19 35 6 26
-24 -19z"/>
<path d="M5130 1569 c-7 -11 -10 -23 -7 -25 2 -2 9 7 15 21 14 30 7 33 -8 4z"/>
<path d="M5306 1573 c-6 -14 -5 -15 5 -6 7 7 10 15 7 18 -3 3 -9 -2 -12 -12z"/>
<path d="M7959 1572 c5 -10 18 -25 27 -33 11 -9 9 -2 -6 19 -26 35 -36 42 -21
14z"/>
<path d="M2074 1455 c0 -55 1 -76 3 -47 2 29 2 74 0 100 -2 26 -3 2 -3 -53z"/>
<path d="M5941 1545 c0 -5 6 -21 14 -35 8 -14 14 -20 14 -15 0 6 -6 21 -14 35
-8 14 -14 21 -14 15z"/>
<path d="M6116 1537 c3 -10 9 -15 12 -12 3 3 0 11 -7 18 -10 9 -11 8 -5 -6z"/>
<path d="M7182 1508 c13 -18 44 -59 67 -90 24 -32 46 -58 48 -58 3 0 -6 15
-19 33 -13 17 -44 58 -67 90 -24 31 -46 57 -48 57 -3 0 6 -15 19 -32z"/>
<path d="M5107 1523 c-4 -3 -7 -13 -7 -22 1 -13 3 -13 11 2 11 19 8 33 -4 20z"/>
<path d="M8015 1500 c10 -11 20 -20 22 -20 2 0 -2 9 -9 20 -7 11 -17 20 -22
20 -5 0 -1 -9 9 -20z"/>
<path d="M6132 1505 c-1 -13 66 -153 67 -140 0 6 -15 42 -34 80 -18 39 -33 66
-33 60z"/>
<path d="M5265 1489 c-4 -6 -5 -12 -2 -15 2 -3 7 2 10 11 7 17 1 20 -8 4z"/>
<path d="M8290 1490 c8 -5 20 -10 25 -10 6 0 3 5 -5 10 -8 5 -19 10 -25 10 -5
0 -3 -5 5 -10z"/>
<path d="M5085 1469 c-4 -6 -5 -12 -2 -15 2 -3 7 2 10 11 7 17 1 20 -8 4z"/>
<path d="M8050 1472 c0 -5 14 -18 30 -30 17 -13 30 -21 30 -19 0 2 -13 16 -30
30 -16 15 -30 23 -30 19z"/>
<path d="M8388 1473 c12 -2 32 -2 45 0 12 2 2 4 -23 4 -25 0 -35 -2 -22 -4z"/>
<path d="M7432 1409 c-2 -60 -4 -67 -24 -73 -35 -9 -76 -7 -83 4 -3 6 -11 10
-17 10 -7 0 -6 -6 2 -15 14 -16 95 -21 118 -6 9 5 12 28 9 77 l-3 69 -2 -66z"/>
<path d="M5980 1451 c0 -6 4 -13 10 -16 6 -3 7 1 4 9 -7 18 -14 21 -14 7z"/>
<path d="M3682 1410 c0 -19 2 -27 5 -17 2 9 2 25 0 35 -3 9 -5 1 -5 -18z"/>
<path d="M4122 1410 c0 -19 2 -27 5 -17 2 9 2 25 0 35 -3 9 -5 1 -5 -18z"/>
<path d="M5050 1393 c-30 -68 -24 -74 67 -71 l78 3 27 50 c15 28 27 55 27 60
0 6 -12 -12 -26 -40 -14 -27 -31 -53 -37 -57 -6 -4 -40 -6 -76 -5 -72 2 -74 5
-46 70 9 20 14 37 12 37 -3 0 -14 -21 -26 -47z"/>
<path d="M4860 1380 l-5 -45 -362 0 c-198 0 -359 -3 -356 -7 2 -5 166 -8 364
-8 397 0 373 -4 367 66 l-4 39 -4 -45z"/>
<path d="M6001 1415 c0 -5 10 -28 22 -50 23 -40 23 -40 91 -43 38 -2 73 1 78
6 6 6 -7 8 -36 5 -80 -9 -109 2 -133 50 -12 23 -22 38 -22 32z"/>
<path d="M8140 1401 c24 -20 40 -26 40 -16 0 2 -15 12 -32 20 l-33 16 25 -20z"/>
<path d="M8210 1367 c27 -15 80 -30 80 -23 0 3 -15 9 -32 14 -18 6 -42 13 -53
17 -12 4 -10 1 5 -8z"/>
<path d="M1922 1340 c3 -11 22 -16 68 -18 35 -2 67 1 71 5 4 4 -19 6 -52 5
-40 -3 -65 1 -76 10 -14 11 -16 11 -11 -2z"/>
<path d="M8285 1230 c3 -5 8 -10 11 -10 2 0 4 5 4 10 0 6 -5 10 -11 10 -5 0
-7 -4 -4 -10z"/>
<path d="M8277 1163 c-5 -43 4 -60 36 -66 13 -2 5 -5 -18 -6 l-40 -3 30 -9
c17 -5 51 -8 78 -7 39 3 45 5 31 15 -9 6 -33 15 -55 18 -46 8 -54 18 -50 62 4
46 -6 42 -12 -4z"/>
<path d="M8236 1135 c-3 -8 -1 -15 4 -15 6 0 10 7 10 15 0 8 -2 15 -4 15 -2 0
-6 -7 -10 -15z"/>
<path d="M8115 1131 c-3 -5 -1 -12 5 -16 5 -3 10 -2 10 2 0 5 19 8 43 6 38 -2
39 -1 12 6 -42 12 -63 12 -70 2z"/>
<path d="M8165 1100 c17 -4 44 -8 60 -8 25 -1 27 1 10 8 -11 5 -38 8 -60 8
-38 0 -39 -1 -10 -8z"/>
<path d="M4697 980 c-40 -12 -55 -27 -66 -67 -13 -47 0 -76 51 -113 71 -51 78
-59 78 -88 0 -38 -17 -52 -63 -52 -34 0 -40 4 -50 30 -16 41 -27 38 -27 -9 0
-45 11 -52 73 -49 l42 1 -50 6 c-40 5 -50 10 -53 26 -2 16 -1 17 7 6 5 -8 32
-17 61 -21 45 -6 53 -4 75 18 19 18 25 35 25 67 0 45 -19 69 -77 99 -36 18
-53 43 -53 78 0 32 18 48 52 48 22 0 33 -8 46 -30 21 -36 32 -38 32 -6 0 32
-10 56 -22 56 -6 0 -5 -7 2 -15 19 -23 3 -31 -20 -10 -16 14 -17 20 -8 27 17
10 -17 9 -55 -2z m-44 -70 c-5 -20 21 -50 101 -113 40 -32 48 -77 21 -113 -14
-18 -14 -18 -8 3 10 41 -6 72 -50 99 -52 33 -77 58 -79 81 -3 35 2 63 11 63 5
0 7 -9 4 -20z"/>
<path d="M5225 975 c-22 -8 -41 -15 -42 -15 -1 0 -8 -10 -14 -22 l-11 -23 22
23 c30 32 37 21 10 -16 -20 -26 -22 -40 -19 -120 4 -97 25 -144 65 -149 13 -2
15 -1 4 4 -44 19 -60 62 -60 161 0 62 4 82 23 109 18 27 29 33 58 33 57 0 82
-35 87 -120 5 -90 -4 -137 -33 -165 -19 -20 -20 -25 -7 -30 25 -9 83 59 81 97
0 7 -7 -4 -16 -24 -16 -41 -40 -54 -26 -15 4 12 8 63 8 113 0 90 -1 92 -35
132 -40 46 -41 46 -95 27z m115 -304 c0 -5 -7 -12 -16 -15 -14 -5 -15 -4 -4 9
14 17 20 19 20 6z"/>
<path d="M4043 973 c-18 -7 -16 -23 2 -23 12 0 15 -27 17 -157 3 -133 5 -158
18 -158 10 0 16 12 18 40 6 92 24 110 55 52 10 -18 32 -47 48 -65 25 -26 38
-32 63 -30 34 3 41 22 10 25 -18 3 -18 2 1 -6 17 -8 16 -10 -12 -10 -36 -1
-75 39 -115 118 -13 25 -27 49 -33 53 -12 9 -24 -47 -24 -119 -1 -33 -5 -53
-13 -53 -8 0 -10 40 -5 148 3 82 1 155 -4 163 -7 11 2 15 44 20 l52 6 -55 1
c-30 0 -61 -2 -67 -5z"/>
<path d="M4198 965 c17 -8 32 -20 32 -26 0 -7 3 -9 7 -6 11 11 -29 47 -51 47
-16 -1 -14 -4 12 -15z"/>
<path d="M4345 967 c-17 -13 -17 -14 5 -20 23 -6 23 -7 16 -114 -5 -81 -4
-105 4 -97 8 8 11 49 8 123 -3 98 -1 111 14 111 14 0 15 -10 11 -75 -5 -72 -5
-74 18 -79 50 -10 89 -12 89 -4 0 4 -20 8 -44 8 -52 0 -58 10 -48 80 7 43 8
45 45 48 32 3 38 0 47 -22 14 -39 32 -32 28 11 -2 22 -9 38 -18 40 -13 4 -13
3 0 -6 21 -14 10 -19 -30 -13 -29 4 -32 6 -15 13 13 5 -3 8 -46 8 -40 1 -72
-4 -84 -12z"/>
<path d="M4862 968 c-16 -16 -15 -49 0 -45 7 1 19 8 26 15 7 6 24 12 38 12
l24 0 0 -154 c0 -85 4 -157 8 -160 24 -14 32 18 38 156 l7 147 46 3 c34 2 47
7 49 21 3 15 -7 17 -110 17 -75 0 -118 -4 -126 -12z m28 -11 c-14 -8 -27 -12
-30 -10 -7 6 23 23 40 23 8 0 4 -6 -10 -13z m106 -9 c-3 -13 -8 -84 -11 -158
-3 -74 -10 -139 -15 -144 -5 -5 -10 59 -12 157 l-3 167 23 0 c18 0 21 -4 18
-22z m89 12 c-8 -13 -35 -13 -55 0 -11 7 -5 10 23 10 23 0 36 -4 32 -10z"/>
<path d="M5332 963 c15 -10 34 -31 43 -48 10 -20 15 -24 15 -12 0 21 -52 77
-72 77 -7 0 -1 -8 14 -17z"/>
<path d="M5683 973 c-19 -7 -16 -20 7 -26 20 -5 21 -10 14 -152 -8 -167 -8
-166 66 -163 l45 1 -50 6 -50 6 0 161 0 162 63 1 c50 1 66 -3 82 -19 11 -11
20 -16 20 -11 0 25 -46 41 -115 40 -38 0 -76 -3 -82 -6z"/>
<path d="M6073 948 c-28 -50 -74 -160 -69 -166 3 -3 9 3 12 12 5 14 9 15 15 5
9 -16 -7 -39 -24 -35 -7 1 -9 1 -6 -1 3 -2 4 -16 3 -31 l-4 -27 10 26 c6 15
21 30 33 33 37 10 77 7 77 -6 0 -6 3 -9 6 -5 3 3 3 14 0 24 -5 15 -14 18 -46
15 -45 -5 -46 -2 -25 63 9 25 13 49 10 54 -3 5 4 7 14 4 11 -3 22 -15 24 -27
l4 -21 2 22 c0 12 -6 28 -14 37 -8 8 -12 22 -9 30 7 18 30 21 37 6 3 -6 4 -5
3 2 -5 26 -34 18 -53 -14z"/>
<path d="M6298 973 c-25 -6 -22 -23 3 -23 21 0 21 -2 14 -148 -6 -124 -5 -150
8 -160 24 -20 41 12 40 75 -1 48 1 54 16 50 14 -3 17 1 13 19 -2 13 -10 24
-17 24 -7 0 -16 6 -18 13 -3 6 -6 -19 -8 -58 -3 -107 -3 -110 -13 -115 -6 -3
-10 58 -10 158 l-1 163 48 -6 c31 -5 47 -3 47 4 0 11 -86 14 -122 4z"/>
<path d="M6445 970 c29 -11 43 -30 48 -65 l4 -30 2 32 c1 35 -30 74 -58 72
-11 0 -10 -3 4 -9z"/>
<path d="M3940 805 c0 -91 3 -165 8 -165 4 0 9 74 11 165 2 116 0 165 -8 165
-8 0 -11 -51 -11 -165z"/>
<path d="M6592 803 c-1 -94 1 -174 6 -176 4 -3 6 47 4 111 -4 216 -8 238 -10
65z"/>
<path d="M6614 885 c0 -49 1 -71 3 -48 2 23 2 64 0 90 -2 26 -3 8 -3 -42z"/>
<path d="M4102 940 c0 -14 2 -19 5 -12 2 6 2 18 0 25 -3 6 -5 1 -5 -13z"/>
<path d="M6137 880 c3 -30 10 -64 14 -75 5 -12 6 0 2 30 -9 72 -23 112 -16 45z"/>
<path d="M5871 898 c-1 -19 -9 -31 -28 -40 -31 -15 -43 -59 -14 -51 27 7 61
-34 62 -75 0 -33 1 -34 10 -14 10 27 -10 75 -38 91 -16 9 -16 11 1 43 10 19
16 43 13 53 -3 15 -5 14 -6 -7z"/>
<path d="M4850 900 c0 -5 5 -10 11 -10 5 0 7 5 4 10 -3 6 -8 10 -11 10 -2 0
-4 -4 -4 -10z"/>
<path d="M5147 903 c-4 -3 -7 -11 -7 -17 0 -6 5 -5 12 2 6 6 9 14 7 17 -3 3
-9 2 -12 -2z"/>
<path d="M5742 870 c0 -19 2 -27 5 -17 2 9 2 25 0 35 -3 9 -5 1 -5 -18z"/>
<path d="M4092 860 c0 -14 2 -19 5 -12 2 6 2 18 0 25 -3 6 -5 1 -5 -13z"/>
<path d="M4226 865 c-9 -26 -7 -32 5 -12 6 10 9 21 6 23 -2 3 -7 -2 -11 -11z"/>
<path d="M5393 820 c0 -36 2 -50 4 -32 2 17 2 47 0 65 -2 17 -4 3 -4 -33z"/>
<path d="M6352 860 c0 -14 2 -19 5 -12 2 6 2 18 0 25 -3 6 -5 1 -5 -13z"/>
<path d="M6470 851 c-6 -12 -16 -21 -23 -20 -7 1 -19 -1 -28 -5 -15 -6 -14
-12 6 -54 13 -26 38 -63 55 -82 l32 -35 -29 40 c-35 50 -53 82 -53 95 0 6 15
23 32 39 18 16 30 32 26 36 -3 4 -11 -3 -18 -14z"/>
<path d="M5126 828 c-3 -18 -2 -49 3 -68 8 -31 9 -28 10 33 1 72 -5 87 -13 35z"/>
<path d="M6112 835 c0 -16 2 -22 5 -12 2 9 2 23 0 30 -3 6 -5 -1 -5 -18z"/>
<path d="M4193 843 c4 -6 -2 -13 -13 -16 -30 -8 -25 -41 15 -100 19 -28 35
-47 35 -41 0 5 -4 14 -9 20 -5 5 -19 26 -31 48 l-21 39 21 22 c16 17 18 25 9
30 -7 5 -10 4 -6 -2z"/>
<path d="M5750 820 c0 -5 9 -10 21 -10 11 0 17 5 14 10 -3 6 -13 10 -21 10 -8
0 -14 -4 -14 -10z"/>
<path d="M4402 728 l3 -73 55 -1 c30 -1 61 3 68 8 9 8 12 6 12 -5 0 -11 -12
-17 -37 -20 l-38 -4 39 1 c34 1 41 5 47 28 8 32 -9 50 -23 24 -7 -12 -23 -16
-64 -16 l-55 0 3 58 3 57 40 6 40 6 -48 2 -48 1 3 -72z"/>
<path d="M5742 780 c0 -14 2 -19 5 -12 2 6 2 18 0 25 -3 6 -5 1 -5 -13z"/>
<path d="M6161 762 c-1 -31 25 -92 47 -108 16 -12 15 -13 -7 -14 -13 0 -30 8
-38 18 -13 15 -13 15 -3 -5 11 -23 34 -29 64 -17 20 8 21 24 2 24 -21 0 -38
26 -52 78 -7 26 -13 37 -13 24z"/>
<path d="M5528 763 c12 -2 30 -2 40 0 9 3 -1 5 -23 4 -22 0 -30 -2 -17 -4z"/>
<path d="M5490 749 c0 -10 73 -17 95 -9 14 5 2 9 -38 11 -31 2 -57 1 -57 -2z"/>
<path d="M5861 734 c0 -11 3 -14 6 -6 3 7 2 16 -1 19 -3 4 -6 -2 -5 -13z"/>
<path d="M5961 698 c-14 -35 -18 -55 -11 -62 7 -7 14 -6 23 3 10 10 9 11 -5 6
-23 -9 -23 -4 3 50 12 25 19 48 17 51 -3 2 -15 -19 -27 -48z"/>
<path d="M6400 745 c0 -19 76 -110 94 -113 26 -5 68 7 61 18 -3 6 -14 10 -23
10 -15 0 -15 -2 -2 -10 12 -8 10 -10 -10 -10 -34 0 -44 8 -85 65 -19 28 -35
45 -35 40z"/>
<path d="M6131 730 c0 -8 4 -24 9 -35 l9 -20 0 20 c0 11 -4 27 -9 35 -9 13
-10 13 -9 0z"/>
<path d="M5732 705 c0 -16 2 -22 5 -12 2 9 2 23 0 30 -3 6 -5 -1 -5 -18z"/>
<path d="M5140 713 c0 -16 49 -73 63 -73 7 0 4 5 -6 11 -10 6 -27 25 -38 42
-10 18 -19 27 -19 20z"/>
<path d="M4364 676 c1 -26 6 -41 16 -43 10 -3 11 -2 3 4 -6 4 -13 24 -16 43
-4 34 -4 33 -3 -4z"/>
<path d="M5986 685 c-9 -26 -7 -32 5 -12 6 10 9 21 6 23 -2 3 -7 -2 -11 -11z"/>
<path d="M5843 678 c-4 -7 -8 -19 -9 -25 -3 -17 27 -1 47 24 13 17 13 17 -7 1
-25 -22 -41 -24 -24 -3 7 8 10 15 7 15 -3 0 -9 -6 -14 -12z"/>
<path d="M5737 659 c7 -7 15 -10 18 -7 3 3 -2 9 -12 12 -14 6 -15 5 -6 -5z"/>
<path d="M5234 631 c18 -7 66 -3 66 5 0 2 -19 4 -42 3 -31 0 -37 -3 -24 -8z"/>
</g>
</svg>
